PathFileType	4	(X/Y/Z) abd_0kg_2.trc																										
DataRate	CameraRate	NumFrames	NumMarkers	Units	OrigDataRate	OrigDataStartFrame	OrigNumFrames																					
100	100	29	9	mm	100	529	846																					
Frame#	Time	gu			centelbow			EpL			centpxt8			centijc7			ij			ts			aa			ai		
		X1	Y1	Z1	X2	Y2	Z2	X3	Y3	Z3	X4	Y4	Z4	X5	Y5	Z5	X6	Y6	Z6	X7	Y7	Z7	X8	Y8	Z8	X9	Y9	Z9  
528	5.28	-112.301	55.395	125.718	-110.695	80.532	371.38	-132.236	103.693	365.137	-46.816	-153.158	-8.669	-46.816	31.938	-8.669	0	0	0	-119.991	2.717	19.079	-151.192	59.622	119.145	-107.733	-90.776	82.281
529	5.29	-112.555	56.387	125.408	-110.304	77.477	371.445	-132.114	100.505	365.663	-46.816	-153.158	-8.669	-46.816	31.938	-8.669	0	0	0	-119.876	3.136	18.772	-151.011	59.38	119.232	-107.195	-90.678	81.413
530	5.3	-112.654	57.186	125.366	-110.19	74.134	371.722	-132.188	97.086	366.36	-46.816	-153.158	-8.669	-46.816	31.938	-8.669	0	0	0	-119.763	3.982	18.422	-150.866	59.556	119.263	-106.696	-90.155	80.496
531	5.31	-112.173	57.533	126.139	-109.965	70.077	372.76	-132.059	93.025	367.792	-46.816	-153.158	-8.669	-46.816	31.938	-8.669	0	0	0	-119.455	4.739	18.513	-150.545	59.721	119.682	-106.197	-89.714	80.063
532	5.32	-111.319	57.626	127.534	-109.669	65.563	374.351	-131.787	88.566	369.763	-46.816	-153.158	-8.669	-46.816	31.938	-8.669	0	0	0	-119.016	5.139	19.123	-150.108	59.671	120.535	-105.813	-89.6	80.244
533	5.33	-110.615	57.891	128.809	-109.497	61.181	375.734	-131.609	84.265	371.533	-46.816	-153.158	-8.669	-46.816	31.938	-8.669	0	0	0	-118.782	5.337	19.835	-149.888	59.563	121.407	-105.779	-89.634	80.639
534	5.34	-110.206	58.207	129.768	-109.428	56.899	376.714	-131.514	80.075	372.913	-46.816	-153.158	-8.669	-46.816	31.938	-8.669	0	0	0	-118.957	5.391	20.354	-150.066	59.378	122.052	-106.158	-89.772	80.9
535	5.35	-110.005	58.02	130.771	-109.433	52.155	377.651	-131.468	75.445	374.261	-46.816	-153.158	-8.669	-46.816	31.938	-8.669	0	0	0	-119.314	5.168	20.656	-150.38	58.858	122.524	-106.627	-90.206	80.894
536	5.36	-109.987	57.208	131.935	-109.549	46.819	378.666	-131.515	70.23	375.694	-46.816	-153.158	-8.669	-46.816	31.938	-8.669	0	0	0	-119.415	4.814	20.721	-150.384	58.065	122.849	-106.691	-90.822	80.533
537	5.37	-110.081	56.173	133.1	-109.687	41.267	379.599	-131.594	64.784	377.056	-46.816	-153.158	-8.669	-46.816	31.938	-8.669	0	0	0	-119.123	4.867	20.479	-149.984	57.56	122.929	-106.214	-91.064	79.776
538	5.38	-110.246	55.211	134.211	-109.757	35.71	380.39	-131.637	59.296	378.296	-46.816	-153.158	-8.669	-46.816	31.938	-8.669	0	0	0	-118.751	5.597	20.024	-149.557	57.72	122.781	-105.603	-90.612	78.817
539	5.39	-110.57	54.318	135.379	-109.754	30.015	381.129	-131.649	53.625	379.524	-46.816	-153.158	-8.669	-46.816	31.938	-8.669	0	0	0	-118.546	6.572	19.735	-149.378	58.223	122.723	-105.259	-89.868	78.117
540	5.4	-111.052	53.344	136.753	-109.594	23.974	381.946	-131.55	47.558	380.88	-46.816	-153.158	-8.669	-46.816	31.938	-8.669	0	0	0	-118.375	7.176	19.899	-149.28	58.476	123.04	-105.135	-89.464	77.96
541	5.41	-111.572	52.165	138.147	-109.098	17.573	382.65	-131.165	41.073	382.164	-46.816	-153.158	-8.669	-46.816	31.938	-8.669	0	0	0	-118.169	7.299	20.29	-149.123	58.305	123.562	-105.101	-89.541	78.056
542	5.42	-112.187	50.963	138.913	-108.226	11.233	382.614	-130.466	34.574	382.734	-46.816	-153.158	-8.669	-46.816	31.938	-8.669	0	0	0	-118.144	7.353	20.432	-149.064	58.011	123.886	-105.22	-89.72	77.837
543	5.43	-113.108	50.145	138.697	-107.24	5.541	381.515	-129.719	28.641	382.24	-46.816	-153.158	-8.669	-46.816	31.938	-8.669	0	0	0	-118.358	7.72	20.145	-149.153	57.887	123.874	-105.455	-89.646	77.058
544	5.44	-114.256	49.932	138.007	-106.481	0.719	379.878	-129.238	23.52	381.172	-46.816	-153.158	-8.669	-46.816	31.938	-8.669	0	0	0	-118.56	8.388	19.649	-149.184	57.916	123.736	-105.601	-89.334	75.934
545	5.45	-115.138	50.299	137.675	-106.018	-3.355	378.553	-129.046	19.138	380.342	-46.816	-153.158	-8.669	-46.816	31.938	-8.669	0	0	0	-118.564	9.091	19.297	-149.018	57.908	123.769	-105.597	-89.032	74.878
546	5.46	-115.339	51.103	138.033	-105.643	-6.902	377.878	-128.888	15.329	380.083	-46.816	-153.158	-8.669	-46.816	31.938	-8.669	0	0	0	-118.421	9.651	19.287	-148.726	57.782	124.12	-105.577	-88.881	74.168
547	5.47	-114.919	52.042	138.801	-105.124	-10.299	377.552	-128.499	11.753	380.139	-46.816	-153.158	-8.669	-46.816	31.938	-8.669	0	0	0	-118.272	10.056	19.583	-148.443	57.574	124.733	-105.686	-88.871	73.811
548	5.48	-114.234	52.618	139.662	-104.459	-14.181	377.205	-127.856	7.797	380.197	-46.816	-153.158	-8.669	-46.816	31.938	-8.669	0	0	0	-118.264	10.265	19.998	-148.282	57.226	125.442	-106.028	-89.044	73.606
549	5.49	-113.683	52.507	140.509	-103.918	-18.963	376.689	-127.231	3.038	380.136	-46.816	-153.158	-8.669	-46.816	31.938	-8.669	0	0	0	-118.53	10.376	20.154	-148.322	56.774	125.911	-106.643	-89.319	73.119
550	5.5	-113.5	51.935	141.264	-103.709	-24.373	375.924	-126.872	-2.298	379.867	-46.816	-153.158	-8.669	-46.816	31.938	-8.669	0	0	0	-119.031	10.827	19.7	-148.495	56.584	125.827	-107.377	-89.272	71.951
551	5.51	-113.572	51.198	141.909	-103.718	-29.964	374.933	-126.72	-7.818	379.387	-46.816	-153.158	-8.669	-46.816	31.938	-8.669	0	0	0	-119.48	11.79	18.92	-148.568	56.791	125.473	-107.977	-88.747	70.354
552	5.52	-113.618	50.12	142.599	-103.79	-35.721	373.94	-126.644	-13.526	378.884	-46.816	-153.158	-8.669	-46.816	31.938	-8.669	0	0	0	-119.611	12.667	18.639	-148.362	56.827	125.635	-108.38	-88.361	69.163
553	5.53	-113.574	48.546	143.482	-103.947	-41.689	373.155	-126.673	-19.465	378.545	-46.816	-153.158	-8.669	-46.816	31.938	-8.669	0	0	0	-119.485	12.85	19.234	-147.949	56.164	126.651	-108.757	-88.701	68.812
554	5.54	-113.511	46.866	144.501	-104.105	-47.484	372.523	-126.725	-25.256	378.328	-46.816	-153.158	-8.669	-46.816	31.938	-8.669	0	0	0	-119.446	12.579	20.165	-147.606	55.126	127.968	-109.306	-89.462	68.852
555	5.55	-113.419	45.59	145.452	-104.007	-52.693	371.806	-126.538	-30.488	378.028	-46.816	-153.158	-8.669	-46.816	31.938	-8.669	0	0	0	-119.734	12.455	20.757	-147.522	54.359	128.908	-110.049	-89.989	68.685
556	5.56	-113.289	44.686	146.206	-103.597	-57.495	370.816	-126.04	-35.329	377.478	-46.816	-153.158	-8.669	-46.816	31.938	-8.669	0	0	0	-120.184	12.643	20.93	-147.556	54.004	129.396	-110.759	-90.118	68.226
